<svg width="498" height="190" viewBox="0 0 498 190" fill="none" xmlns="http://www.w3.org/2000/svg">
<rect width="498" height="190" fill="#1E1E1E"/>
<rect width="498" height="190" fill="#FBCE39"/>
<g filter="url(#filter0_d_0_1)">
<mask id="path-1-outside-1_0_1" maskUnits="userSpaceOnUse" x="92" y="50" width="313" height="90" fill="black">
<rect fill="white" x="92" y="50" width="313" height="90"/>
<path d="M93.9415 55.544V51.96H129.014V55.544L121.974 56.44C120.608 56.6107 119.798 56.9947 119.542 57.592C119.286 58.104 119.158 59.8107 119.158 62.712V128.248C119.158 131.149 119.286 132.899 119.542 133.496C119.798 134.008 120.608 134.349 121.974 134.52L129.014 135.416V139H93.9415V135.416L100.982 134.52C102.347 134.349 103.158 134.008 103.414 133.496C103.67 132.899 103.798 131.149 103.798 128.248V62.712C103.798 59.8107 103.67 58.104 103.414 57.592C103.158 56.9947 102.347 56.6107 100.982 56.44L93.9415 55.544ZM240.547 135.416V139H205.475V135.416L212.515 134.52C213.88 134.349 214.691 134.008 214.947 133.496C215.203 132.899 215.331 131.149 215.331 128.248V62.456L191.907 128.76H178.211L155.043 62.84V128.248C155.043 131.149 155.171 132.899 155.427 133.496C155.683 134.008 156.493 134.349 157.859 134.52L164.899 135.416V139H140.067V135.416L147.107 134.52C148.472 134.349 149.283 134.008 149.539 133.496C149.795 132.899 149.923 131.149 149.923 128.248V62.712C149.923 59.8107 149.795 58.104 149.539 57.592C149.283 56.9947 148.472 56.6107 147.107 56.44L140.067 55.544V51.96H167.075L190.499 118.52L214.307 51.96H240.547V55.544L233.507 56.44C232.141 56.6107 231.331 56.9947 231.075 57.592C230.819 58.104 230.691 59.8107 230.691 62.712V128.248C230.691 131.149 230.819 132.899 231.075 133.496C231.331 134.008 232.141 134.349 233.507 134.52L240.547 135.416ZM251.567 55.544V51.96H289.327C300.249 51.96 308.612 55.16 314.415 61.56C320.303 67.96 323.247 77.9013 323.247 91.384V99.448C323.247 112.931 320.303 122.915 314.415 129.4C308.612 135.8 300.249 139 289.327 139H251.567V135.416L258.607 134.52C259.972 134.349 260.783 134.008 261.039 133.496C261.295 132.899 261.423 131.149 261.423 128.248V62.712C261.423 59.8107 261.295 58.104 261.039 57.592C260.783 56.9947 259.972 56.6107 258.607 56.44L251.567 55.544ZM288.687 56.44H276.783V134.52H288.687C293.039 134.52 296.537 133.795 299.183 132.344C301.828 130.808 303.748 127.992 304.943 123.896C306.223 119.715 306.863 113.699 306.863 105.848V84.984C306.863 77.1333 306.223 71.16 304.943 67.064C303.748 62.968 301.828 60.1947 299.183 58.744C296.537 57.208 293.039 56.44 288.687 56.44ZM337.192 55.544V51.96H372.52C379.346 51.96 384.765 52.8987 388.776 54.776C392.786 56.6533 395.645 59.128 397.352 62.2C399.144 65.272 400.04 68.6853 400.04 72.44V75.896C400.04 80.3333 398.632 84.1733 395.816 87.416C393.085 90.5733 389.074 92.8347 383.784 94.2C390.269 95.3093 395.218 97.6133 398.632 101.112C402.13 104.611 403.88 109.005 403.88 114.296V117.88C403.88 121.72 402.984 125.261 401.192 128.504C399.4 131.661 396.413 134.221 392.232 136.184C388.136 138.061 382.632 139 375.72 139H337.192V135.416L344.232 134.52C345.597 134.349 346.408 134.008 346.664 133.496C346.92 132.899 347.048 131.149 347.048 128.248V62.712C347.048 59.8107 346.92 58.104 346.664 57.592C346.408 56.9947 345.597 56.6107 344.232 56.44L337.192 55.544ZM372.52 56.44H362.408V92.28H372.52C376.189 92.28 378.962 91.0427 380.84 88.568C382.717 86.008 383.656 81.9973 383.656 76.536V72.44C383.656 66.8933 382.717 62.84 380.84 60.28C378.962 57.72 376.189 56.44 372.52 56.44ZM375.72 96.76H362.408V134.52H375.72C379.56 134.52 382.461 133.24 384.424 130.68C386.472 128.035 387.496 123.768 387.496 117.88V113.656C387.496 102.392 383.57 96.76 375.72 96.76Z"/>
</mask>
<path d="M93.9415 55.544V51.96H129.014V55.544L121.974 56.44C120.608 56.6107 119.798 56.9947 119.542 57.592C119.286 58.104 119.158 59.8107 119.158 62.712V128.248C119.158 131.149 119.286 132.899 119.542 133.496C119.798 134.008 120.608 134.349 121.974 134.52L129.014 135.416V139H93.9415V135.416L100.982 134.52C102.347 134.349 103.158 134.008 103.414 133.496C103.67 132.899 103.798 131.149 103.798 128.248V62.712C103.798 59.8107 103.67 58.104 103.414 57.592C103.158 56.9947 102.347 56.6107 100.982 56.44L93.9415 55.544ZM240.547 135.416V139H205.475V135.416L212.515 134.52C213.88 134.349 214.691 134.008 214.947 133.496C215.203 132.899 215.331 131.149 215.331 128.248V62.456L191.907 128.76H178.211L155.043 62.84V128.248C155.043 131.149 155.171 132.899 155.427 133.496C155.683 134.008 156.493 134.349 157.859 134.52L164.899 135.416V139H140.067V135.416L147.107 134.52C148.472 134.349 149.283 134.008 149.539 133.496C149.795 132.899 149.923 131.149 149.923 128.248V62.712C149.923 59.8107 149.795 58.104 149.539 57.592C149.283 56.9947 148.472 56.6107 147.107 56.44L140.067 55.544V51.96H167.075L190.499 118.52L214.307 51.96H240.547V55.544L233.507 56.44C232.141 56.6107 231.331 56.9947 231.075 57.592C230.819 58.104 230.691 59.8107 230.691 62.712V128.248C230.691 131.149 230.819 132.899 231.075 133.496C231.331 134.008 232.141 134.349 233.507 134.52L240.547 135.416ZM251.567 55.544V51.96H289.327C300.249 51.96 308.612 55.16 314.415 61.56C320.303 67.96 323.247 77.9013 323.247 91.384V99.448C323.247 112.931 320.303 122.915 314.415 129.4C308.612 135.8 300.249 139 289.327 139H251.567V135.416L258.607 134.52C259.972 134.349 260.783 134.008 261.039 133.496C261.295 132.899 261.423 131.149 261.423 128.248V62.712C261.423 59.8107 261.295 58.104 261.039 57.592C260.783 56.9947 259.972 56.6107 258.607 56.44L251.567 55.544ZM288.687 56.44H276.783V134.52H288.687C293.039 134.52 296.537 133.795 299.183 132.344C301.828 130.808 303.748 127.992 304.943 123.896C306.223 119.715 306.863 113.699 306.863 105.848V84.984C306.863 77.1333 306.223 71.16 304.943 67.064C303.748 62.968 301.828 60.1947 299.183 58.744C296.537 57.208 293.039 56.44 288.687 56.44ZM337.192 55.544V51.96H372.52C379.346 51.96 384.765 52.8987 388.776 54.776C392.786 56.6533 395.645 59.128 397.352 62.2C399.144 65.272 400.04 68.6853 400.04 72.44V75.896C400.04 80.3333 398.632 84.1733 395.816 87.416C393.085 90.5733 389.074 92.8347 383.784 94.2C390.269 95.3093 395.218 97.6133 398.632 101.112C402.13 104.611 403.88 109.005 403.88 114.296V117.88C403.88 121.72 402.984 125.261 401.192 128.504C399.4 131.661 396.413 134.221 392.232 136.184C388.136 138.061 382.632 139 375.72 139H337.192V135.416L344.232 134.52C345.597 134.349 346.408 134.008 346.664 133.496C346.92 132.899 347.048 131.149 347.048 128.248V62.712C347.048 59.8107 346.92 58.104 346.664 57.592C346.408 56.9947 345.597 56.6107 344.232 56.44L337.192 55.544ZM372.52 56.44H362.408V92.28H372.52C376.189 92.28 378.962 91.0427 380.84 88.568C382.717 86.008 383.656 81.9973 383.656 76.536V72.44C383.656 66.8933 382.717 62.84 380.84 60.28C378.962 57.72 376.189 56.44 372.52 56.44ZM375.72 96.76H362.408V134.52H375.72C379.56 134.52 382.461 133.24 384.424 130.68C386.472 128.035 387.496 123.768 387.496 117.88V113.656C387.496 102.392 383.57 96.76 375.72 96.76Z" fill="black"/>
<path d="M93.9415 55.544V51.96H129.014V55.544L121.974 56.44C120.608 56.6107 119.798 56.9947 119.542 57.592C119.286 58.104 119.158 59.8107 119.158 62.712V128.248C119.158 131.149 119.286 132.899 119.542 133.496C119.798 134.008 120.608 134.349 121.974 134.52L129.014 135.416V139H93.9415V135.416L100.982 134.52C102.347 134.349 103.158 134.008 103.414 133.496C103.67 132.899 103.798 131.149 103.798 128.248V62.712C103.798 59.8107 103.67 58.104 103.414 57.592C103.158 56.9947 102.347 56.6107 100.982 56.44L93.9415 55.544ZM240.547 135.416V139H205.475V135.416L212.515 134.52C213.88 134.349 214.691 134.008 214.947 133.496C215.203 132.899 215.331 131.149 215.331 128.248V62.456L191.907 128.76H178.211L155.043 62.84V128.248C155.043 131.149 155.171 132.899 155.427 133.496C155.683 134.008 156.493 134.349 157.859 134.52L164.899 135.416V139H140.067V135.416L147.107 134.52C148.472 134.349 149.283 134.008 149.539 133.496C149.795 132.899 149.923 131.149 149.923 128.248V62.712C149.923 59.8107 149.795 58.104 149.539 57.592C149.283 56.9947 148.472 56.6107 147.107 56.44L140.067 55.544V51.96H167.075L190.499 118.52L214.307 51.96H240.547V55.544L233.507 56.44C232.141 56.6107 231.331 56.9947 231.075 57.592C230.819 58.104 230.691 59.8107 230.691 62.712V128.248C230.691 131.149 230.819 132.899 231.075 133.496C231.331 134.008 232.141 134.349 233.507 134.52L240.547 135.416ZM251.567 55.544V51.96H289.327C300.249 51.96 308.612 55.16 314.415 61.56C320.303 67.96 323.247 77.9013 323.247 91.384V99.448C323.247 112.931 320.303 122.915 314.415 129.4C308.612 135.8 300.249 139 289.327 139H251.567V135.416L258.607 134.52C259.972 134.349 260.783 134.008 261.039 133.496C261.295 132.899 261.423 131.149 261.423 128.248V62.712C261.423 59.8107 261.295 58.104 261.039 57.592C260.783 56.9947 259.972 56.6107 258.607 56.44L251.567 55.544ZM288.687 56.44H276.783V134.52H288.687C293.039 134.52 296.537 133.795 299.183 132.344C301.828 130.808 303.748 127.992 304.943 123.896C306.223 119.715 306.863 113.699 306.863 105.848V84.984C306.863 77.1333 306.223 71.16 304.943 67.064C303.748 62.968 301.828 60.1947 299.183 58.744C296.537 57.208 293.039 56.44 288.687 56.44ZM337.192 55.544V51.96H372.52C379.346 51.96 384.765 52.8987 388.776 54.776C392.786 56.6533 395.645 59.128 397.352 62.2C399.144 65.272 400.04 68.6853 400.04 72.44V75.896C400.04 80.3333 398.632 84.1733 395.816 87.416C393.085 90.5733 389.074 92.8347 383.784 94.2C390.269 95.3093 395.218 97.6133 398.632 101.112C402.13 104.611 403.88 109.005 403.88 114.296V117.88C403.88 121.72 402.984 125.261 401.192 128.504C399.4 131.661 396.413 134.221 392.232 136.184C388.136 138.061 382.632 139 375.72 139H337.192V135.416L344.232 134.52C345.597 134.349 346.408 134.008 346.664 133.496C346.92 132.899 347.048 131.149 347.048 128.248V62.712C347.048 59.8107 346.92 58.104 346.664 57.592C346.408 56.9947 345.597 56.6107 344.232 56.44L337.192 55.544ZM372.52 56.44H362.408V92.28H372.52C376.189 92.28 378.962 91.0427 380.84 88.568C382.717 86.008 383.656 81.9973 383.656 76.536V72.44C383.656 66.8933 382.717 62.84 380.84 60.28C378.962 57.72 376.189 56.44 372.52 56.44ZM375.72 96.76H362.408V134.52H375.72C379.56 134.52 382.461 133.24 384.424 130.68C386.472 128.035 387.496 123.768 387.496 117.88V113.656C387.496 102.392 383.57 96.76 375.72 96.76Z" fill="black"/>
<path d="M93.9415 55.544H92.9415V56.4248L93.8152 56.536L93.9415 55.544ZM93.9415 51.96V50.96H92.9415V51.96H93.9415ZM129.014 51.96H130.014V50.96H129.014V51.96ZM129.014 55.544L129.14 56.536L130.014 56.4248V55.544H129.014ZM121.974 56.44L122.098 57.4323L122.1 57.432L121.974 56.44ZM119.542 57.592L120.436 58.0392L120.449 58.0129L120.461 57.9859L119.542 57.592ZM119.542 133.496L118.622 133.89L118.634 133.917L118.647 133.943L119.542 133.496ZM121.974 134.52L122.1 133.528L122.098 133.528L121.974 134.52ZM129.014 135.416H130.014V134.535L129.14 134.424L129.014 135.416ZM129.014 139V140H130.014V139H129.014ZM93.9415 139H92.9415V140H93.9415V139ZM93.9415 135.416L93.8152 134.424L92.9415 134.535V135.416H93.9415ZM100.982 134.52L100.857 133.528L100.855 133.528L100.982 134.52ZM103.414 133.496L104.308 133.943L104.321 133.917L104.333 133.89L103.414 133.496ZM103.414 57.592L102.494 57.9859L102.506 58.0129L102.519 58.0392L103.414 57.592ZM100.982 56.44L100.855 57.432L100.857 57.4323L100.982 56.44ZM93.9415 55.544H94.9415V51.96H93.9415H92.9415V55.544H93.9415ZM93.9415 51.96V52.96H129.014V51.96V50.96H93.9415V51.96ZM129.014 51.96H128.014V55.544H129.014H130.014V51.96H129.014ZM129.014 55.544L128.887 54.552L121.847 55.448L121.974 56.44L122.1 57.432L129.14 56.536L129.014 55.544ZM121.974 56.44L121.849 55.4477C121.111 55.54 120.452 55.6973 119.913 55.9523C119.372 56.2089 118.878 56.6025 118.622 57.1981L119.542 57.592L120.461 57.9859C120.461 57.9841 120.501 57.8871 120.77 57.7597C121.042 57.6307 121.47 57.5107 122.098 57.4323L121.974 56.44ZM119.542 57.592L118.647 57.1448C118.515 57.4084 118.44 57.7299 118.388 58.0295C118.333 58.3503 118.29 58.7371 118.256 59.1812C118.19 60.0706 118.158 61.2509 118.158 62.712H119.158H120.158C120.158 61.2717 120.189 60.148 120.251 59.3308C120.281 58.9216 120.318 58.6044 120.359 58.3705C120.403 58.1154 120.44 58.0316 120.436 58.0392L119.542 57.592ZM119.158 62.712H118.158V128.248H119.158H120.158V62.712H119.158ZM119.158 128.248H118.158C118.158 129.71 118.19 130.9 118.256 131.809C118.319 132.667 118.419 133.416 118.622 133.89L119.542 133.496L120.461 133.102C120.408 132.979 120.316 132.554 120.251 131.663C120.189 130.823 120.158 129.688 120.158 128.248H119.158ZM119.542 133.496L118.647 133.943C118.926 134.501 119.441 134.842 119.953 135.058C120.477 135.278 121.121 135.421 121.849 135.512L121.974 134.52L122.098 133.528C121.461 133.448 121.017 133.335 120.73 133.214C120.431 133.089 120.413 133.003 120.436 133.049L119.542 133.496ZM121.974 134.52L121.847 135.512L128.887 136.408L129.014 135.416L129.14 134.424L122.1 133.528L121.974 134.52ZM129.014 135.416H128.014V139H129.014H130.014V135.416H129.014ZM129.014 139V138H93.9415V139V140H129.014V139ZM93.9415 139H94.9415V135.416H93.9415H92.9415V139H93.9415ZM93.9415 135.416L94.0678 136.408L101.108 135.512L100.982 134.52L100.855 133.528L93.8152 134.424L93.9415 135.416ZM100.982 134.52L101.106 135.512C101.834 135.421 102.478 135.278 103.002 135.058C103.514 134.842 104.029 134.501 104.308 133.943L103.414 133.496L102.519 133.049C102.542 133.003 102.524 133.089 102.225 133.214C101.938 133.335 101.494 133.448 100.857 133.528L100.982 134.52ZM103.414 133.496L104.333 133.89C104.536 133.416 104.636 132.667 104.699 131.809C104.765 130.9 104.798 129.71 104.798 128.248H103.798H102.798C102.798 129.688 102.766 130.823 102.704 131.663C102.639 132.554 102.547 132.979 102.494 133.102L103.414 133.496ZM103.798 128.248H104.798V62.712H103.798H102.798V128.248H103.798ZM103.798 62.712H104.798C104.798 61.2509 104.765 60.0706 104.699 59.1812C104.665 58.7371 104.622 58.3503 104.567 58.0295C104.515 57.7299 104.44 57.4084 104.308 57.1448L103.414 57.592L102.519 58.0392C102.515 58.0316 102.552 58.1154 102.596 58.3705C102.637 58.6044 102.674 58.9216 102.704 59.3308C102.766 60.148 102.798 61.2717 102.798 62.712H103.798ZM103.414 57.592L104.333 57.1981C104.077 56.6025 103.583 56.2089 103.042 55.9523C102.503 55.6973 101.844 55.54 101.106 55.4477L100.982 56.44L100.857 57.4323C101.485 57.5107 101.913 57.6307 102.185 57.7597C102.454 57.8871 102.494 57.9841 102.494 57.9859L103.414 57.592ZM100.982 56.44L101.108 55.448L94.0678 54.552L93.9415 55.544L93.8152 56.536L100.855 57.432L100.982 56.44ZM240.547 135.416H241.547V134.535L240.673 134.424L240.547 135.416ZM240.547 139V140H241.547V139H240.547ZM205.475 139H204.475V140H205.475V139ZM205.475 135.416L205.348 134.424L204.475 134.535V135.416H205.475ZM212.515 134.52L212.39 133.528L212.388 133.528L212.515 134.52ZM214.947 133.496L215.841 133.943L215.854 133.917L215.866 133.89L214.947 133.496ZM215.331 62.456H216.331L214.388 62.1229L215.331 62.456ZM191.907 128.76V129.76H192.614L192.849 129.093L191.907 128.76ZM178.211 128.76L177.267 129.092L177.502 129.76H178.211V128.76ZM155.043 62.84L155.986 62.5084L154.043 62.84H155.043ZM155.427 133.496L154.507 133.89L154.519 133.917L154.532 133.943L155.427 133.496ZM157.859 134.52L157.985 133.528L157.983 133.528L157.859 134.52ZM164.899 135.416H165.899V134.535L165.025 134.424L164.899 135.416ZM164.899 139V140H165.899V139H164.899ZM140.067 139H139.067V140H140.067V139ZM140.067 135.416L139.94 134.424L139.067 134.535V135.416H140.067ZM147.107 134.52L146.982 133.528L146.98 133.528L147.107 134.52ZM149.539 133.496L150.433 133.943L150.446 133.917L150.458 133.89L149.539 133.496ZM149.539 57.592L148.619 57.9859L148.631 58.0129L148.644 58.0392L149.539 57.592ZM147.107 56.44L146.98 57.432L146.982 57.4323L147.107 56.44ZM140.067 55.544H139.067V56.4248L139.94 56.536L140.067 55.544ZM140.067 51.96V50.96H139.067V51.96H140.067ZM167.075 51.96L168.018 51.628L167.783 50.96H167.075V51.96ZM190.499 118.52L189.555 118.852L190.491 121.511L191.44 118.857L190.499 118.52ZM214.307 51.96V50.96H213.602L213.365 51.6232L214.307 51.96ZM240.547 51.96H241.547V50.96H240.547V51.96ZM240.547 55.544L240.673 56.536L241.547 56.4248V55.544H240.547ZM233.507 56.44L233.631 57.4323L233.633 57.432L233.507 56.44ZM231.075 57.592L231.969 58.0392L231.982 58.0129L231.994 57.9859L231.075 57.592ZM231.075 133.496L230.155 133.89L230.167 133.917L230.18 133.943L231.075 133.496ZM233.507 134.52L233.633 133.528L233.631 133.528L233.507 134.52ZM240.547 135.416H239.547V139H240.547H241.547V135.416H240.547ZM240.547 139V138H205.475V139V140H240.547V139ZM205.475 139H206.475V135.416H205.475H204.475V139H205.475ZM205.475 135.416L205.601 136.408L212.641 135.512L212.515 134.52L212.388 133.528L205.348 134.424L205.475 135.416ZM212.515 134.52L212.639 135.512C213.367 135.421 214.011 135.278 214.535 135.058C215.047 134.842 215.562 134.501 215.841 133.943L214.947 133.496L214.052 133.049C214.075 133.003 214.057 133.089 213.758 133.214C213.471 133.335 213.027 133.448 212.39 133.528L212.515 134.52ZM214.947 133.496L215.866 133.89C216.069 133.416 216.169 132.667 216.232 131.809C216.298 130.9 216.331 129.71 216.331 128.248H215.331H214.331C214.331 129.688 214.299 130.823 214.237 131.663C214.172 132.554 214.08 132.979 214.027 133.102L214.947 133.496ZM215.331 128.248H216.331V62.456H215.331H214.331V128.248H215.331ZM215.331 62.456L214.388 62.1229L190.964 128.427L191.907 128.76L192.849 129.093L216.273 62.7891L215.331 62.456ZM191.907 128.76V127.76H178.211V128.76V129.76H191.907V128.76ZM178.211 128.76L179.154 128.428L155.986 62.5084L155.043 62.84L154.099 63.1716L177.267 129.092L178.211 128.76ZM155.043 62.84H154.043V128.248H155.043H156.043V62.84H155.043ZM155.043 128.248H154.043C154.043 129.71 154.075 130.9 154.141 131.809C154.204 132.667 154.304 133.416 154.507 133.89L155.427 133.496L156.346 133.102C156.293 132.979 156.201 132.554 156.136 131.663C156.074 130.823 156.043 129.688 156.043 128.248H155.043ZM155.427 133.496L154.532 133.943C154.811 134.501 155.326 134.842 155.838 135.058C156.362 135.278 157.006 135.421 157.734 135.512L157.859 134.52L157.983 133.528C157.346 133.448 156.902 133.335 156.615 133.214C156.316 133.089 156.298 133.003 156.321 133.049L155.427 133.496ZM157.859 134.52L157.732 135.512L164.772 136.408L164.899 135.416L165.025 134.424L157.985 133.528L157.859 134.52ZM164.899 135.416H163.899V139H164.899H165.899V135.416H164.899ZM164.899 139V138H140.067V139V140H164.899V139ZM140.067 139H141.067V135.416H140.067H139.067V139H140.067ZM140.067 135.416L140.193 136.408L147.233 135.512L147.107 134.52L146.98 133.528L139.94 134.424L140.067 135.416ZM147.107 134.52L147.231 135.512C147.959 135.421 148.603 135.278 149.127 135.058C149.639 134.842 150.154 134.501 150.433 133.943L149.539 133.496L148.644 133.049C148.667 133.003 148.649 133.089 148.35 133.214C148.063 133.335 147.619 133.448 146.982 133.528L147.107 134.52ZM149.539 133.496L150.458 133.89C150.661 133.416 150.761 132.667 150.824 131.809C150.89 130.9 150.923 129.71 150.923 128.248H149.923H148.923C148.923 129.688 148.891 130.823 148.829 131.663C148.764 132.554 148.672 132.979 148.619 133.102L149.539 133.496ZM149.923 128.248H150.923V62.712H149.923H148.923V128.248H149.923ZM149.923 62.712H150.923C150.923 61.2509 150.89 60.0706 150.824 59.1812C150.79 58.7371 150.747 58.3503 150.692 58.0295C150.64 57.7299 150.565 57.4084 150.433 57.1448L149.539 57.592L148.644 58.0392C148.64 58.0316 148.677 58.1154 148.721 58.3705C148.762 58.6044 148.799 58.9216 148.829 59.3308C148.891 60.148 148.923 61.2717 148.923 62.712H149.923ZM149.539 57.592L150.458 57.1981C150.202 56.6025 149.708 56.2089 149.167 55.9523C148.628 55.6973 147.969 55.54 147.231 55.4477L147.107 56.44L146.982 57.4323C147.61 57.5107 148.038 57.6307 148.31 57.7597C148.579 57.8871 148.619 57.9841 148.619 57.9859L149.539 57.592ZM147.107 56.44L147.233 55.448L140.193 54.552L140.067 55.544L139.94 56.536L146.98 57.432L147.107 56.44ZM140.067 55.544H141.067V51.96H140.067H139.067V55.544H140.067ZM140.067 51.96V52.96H167.075V51.96V50.96H140.067V51.96ZM167.075 51.96L166.131 52.292L189.555 118.852L190.499 118.52L191.442 118.188L168.018 51.628L167.075 51.96ZM190.499 118.52L191.44 118.857L215.248 52.2968L214.307 51.96L213.365 51.6232L189.557 118.183L190.499 118.52ZM214.307 51.96V52.96H240.547V51.96V50.96H214.307V51.96ZM240.547 51.96H239.547V55.544H240.547H241.547V51.96H240.547ZM240.547 55.544L240.42 54.552L233.38 55.448L233.507 56.44L233.633 57.432L240.673 56.536L240.547 55.544ZM233.507 56.44L233.382 55.4477C232.644 55.54 231.985 55.6973 231.446 55.9523C230.905 56.2089 230.411 56.6025 230.155 57.1981L231.075 57.592L231.994 57.9859C231.994 57.9841 232.034 57.8871 232.303 57.7597C232.575 57.6307 233.003 57.5107 233.631 57.4323L233.507 56.44ZM231.075 57.592L230.18 57.1448C230.048 57.4084 229.973 57.7299 229.921 58.0295C229.866 58.3503 229.823 58.7371 229.789 59.1812C229.723 60.0706 229.691 61.2509 229.691 62.712H230.691H231.691C231.691 61.2717 231.722 60.148 231.784 59.3308C231.814 58.9216 231.851 58.6044 231.892 58.3705C231.936 58.1154 231.973 58.0316 231.969 58.0392L231.075 57.592ZM230.691 62.712H229.691V128.248H230.691H231.691V62.712H230.691ZM230.691 128.248H229.691C229.691 129.71 229.723 130.9 229.789 131.809C229.852 132.667 229.952 133.416 230.155 133.89L231.075 133.496L231.994 133.102C231.941 132.979 231.849 132.554 231.784 131.663C231.722 130.823 231.691 129.688 231.691 128.248H230.691ZM231.075 133.496L230.18 133.943C230.459 134.501 230.974 134.842 231.486 135.058C232.01 135.278 232.654 135.421 233.382 135.512L233.507 134.52L233.631 133.528C232.994 133.448 232.55 133.335 232.263 133.214C231.964 133.089 231.946 133.003 231.969 133.049L231.075 133.496ZM233.507 134.52L233.38 135.512L240.42 136.408L240.547 135.416L240.673 134.424L233.633 133.528L233.507 134.52ZM251.567 55.544H250.567V56.4248L251.44 56.536L251.567 55.544ZM251.567 51.96V50.96H250.567V51.96H251.567ZM314.415 61.56L313.674 62.2317L313.679 62.2371L314.415 61.56ZM314.415 129.4L313.674 128.728L313.674 128.728L314.415 129.4ZM251.567 139H250.567V140H251.567V139ZM251.567 135.416L251.44 134.424L250.567 134.535V135.416H251.567ZM258.607 134.52L258.482 133.528L258.48 133.528L258.607 134.52ZM261.039 133.496L261.933 133.943L261.946 133.917L261.958 133.89L261.039 133.496ZM261.039 57.592L260.119 57.9859L260.131 58.0129L260.144 58.0392L261.039 57.592ZM258.607 56.44L258.48 57.432L258.482 57.4323L258.607 56.44ZM276.783 56.44V55.44H275.783V56.44H276.783ZM276.783 134.52H275.783V135.52H276.783V134.52ZM299.183 132.344L299.663 133.221L299.674 133.215L299.685 133.209L299.183 132.344ZM304.943 123.896L303.986 123.603L303.983 123.616L304.943 123.896ZM304.943 67.064L303.983 67.344L303.985 67.3532L303.988 67.3623L304.943 67.064ZM299.183 58.744L298.68 59.6088L298.691 59.6149L298.702 59.6208L299.183 58.744ZM251.567 55.544H252.567V51.96H251.567H250.567V55.544H251.567ZM251.567 51.96V52.96H289.327V51.96V50.96H251.567V51.96ZM289.327 51.96V52.96C300.047 52.96 308.108 56.0933 313.674 62.2317L314.415 61.56L315.155 60.8883C309.115 54.2267 300.452 50.96 289.327 50.96V51.96ZM314.415 61.56L313.679 62.2371C319.324 68.3736 322.247 78.0192 322.247 91.384H323.247H324.247C324.247 77.7835 321.281 67.5463 315.15 60.8829L314.415 61.56ZM323.247 91.384H322.247V99.448H323.247H324.247V91.384H323.247ZM323.247 99.448H322.247C322.247 112.811 319.325 122.504 313.674 128.728L314.415 129.4L315.155 130.072C321.28 123.326 324.247 113.05 324.247 99.448H323.247ZM314.415 129.4L313.674 128.728C308.108 134.867 300.047 138 289.327 138V139V140C300.452 140 309.115 136.733 315.155 130.072L314.415 129.4ZM289.327 139V138H251.567V139V140H289.327V139ZM251.567 139H252.567V135.416H251.567H250.567V139H251.567ZM251.567 135.416L251.693 136.408L258.733 135.512L258.607 134.52L258.48 133.528L251.44 134.424L251.567 135.416ZM258.607 134.52L258.731 135.512C259.459 135.421 260.103 135.278 260.627 135.058C261.139 134.842 261.654 134.501 261.933 133.943L261.039 133.496L260.144 133.049C260.167 133.003 260.149 133.089 259.85 133.214C259.563 133.335 259.119 133.448 258.482 133.528L258.607 134.52ZM261.039 133.496L261.958 133.89C262.161 133.416 262.261 132.667 262.324 131.809C262.39 130.9 262.423 129.71 262.423 128.248H261.423H260.423C260.423 129.688 260.391 130.823 260.329 131.663C260.264 132.554 260.172 132.979 260.119 133.102L261.039 133.496ZM261.423 128.248H262.423V62.712H261.423H260.423V128.248H261.423ZM261.423 62.712H262.423C262.423 61.2509 262.39 60.0706 262.324 59.1812C262.29 58.7371 262.247 58.3503 262.192 58.0295C262.14 57.7299 262.065 57.4084 261.933 57.1448L261.039 57.592L260.144 58.0392C260.14 58.0316 260.177 58.1154 260.221 58.3705C260.262 58.6044 260.299 58.9216 260.329 59.3308C260.391 60.148 260.423 61.2717 260.423 62.712H261.423ZM261.039 57.592L261.958 57.1981C261.702 56.6025 261.208 56.2089 260.667 55.9523C260.128 55.6973 259.469 55.54 258.731 55.4477L258.607 56.44L258.482 57.4323C259.11 57.5107 259.538 57.6307 259.81 57.7597C260.079 57.8871 260.119 57.9841 260.119 57.9859L261.039 57.592ZM258.607 56.44L258.733 55.448L251.693 54.552L251.567 55.544L251.44 56.536L258.48 57.432L258.607 56.44ZM288.687 56.44V55.44H276.783V56.44V57.44H288.687V56.44ZM276.783 56.44H275.783V134.52H276.783H277.783V56.44H276.783ZM276.783 134.52V135.52H288.687V134.52V133.52H276.783V134.52ZM288.687 134.52V135.52C293.137 135.52 296.82 134.78 299.663 133.221L299.183 132.344L298.702 131.467C296.255 132.809 292.94 133.52 288.687 133.52V134.52ZM299.183 132.344L299.685 133.209C302.627 131.5 304.665 128.42 305.903 124.176L304.943 123.896L303.983 123.616C302.831 127.564 301.029 130.116 298.68 131.479L299.183 132.344ZM304.943 123.896L305.899 124.189C307.222 119.865 307.863 113.732 307.863 105.848H306.863H305.863C305.863 113.665 305.223 119.564 303.986 123.603L304.943 123.896ZM306.863 105.848H307.863V84.984H306.863H305.863V105.848H306.863ZM306.863 84.984H307.863C307.863 77.1013 307.223 71.0074 305.897 66.7657L304.943 67.064L303.988 67.3623C305.223 71.3126 305.863 77.1654 305.863 84.984H306.863ZM304.943 67.064L305.903 66.784C304.665 62.54 302.623 59.4904 299.663 57.8672L299.183 58.744L298.702 59.6208C301.032 60.899 302.831 63.396 303.983 67.344L304.943 67.064ZM299.183 58.744L299.685 57.8792C296.836 56.2249 293.144 55.44 288.687 55.44V56.44V57.44C292.933 57.44 296.239 58.1911 298.68 59.6088L299.183 58.744ZM337.192 55.544H336.192V56.4248L337.065 56.536L337.192 55.544ZM337.192 51.96V50.96H336.192V51.96H337.192ZM388.776 54.776L389.199 53.8703L389.199 53.8703L388.776 54.776ZM397.352 62.2L396.477 62.6856L396.482 62.6948L396.488 62.7039L397.352 62.2ZM395.816 87.416L395.06 86.7603L395.059 86.7618L395.816 87.416ZM383.784 94.2L383.534 93.2317L383.615 95.1857L383.784 94.2ZM398.632 101.112L397.916 101.81L397.924 101.819L398.632 101.112ZM401.192 128.504L402.061 128.998L402.067 128.988L401.192 128.504ZM392.232 136.184L392.648 137.093L392.656 137.089L392.232 136.184ZM337.192 139H336.192V140H337.192V139ZM337.192 135.416L337.065 134.424L336.192 134.535V135.416H337.192ZM344.232 134.52L344.107 133.528L344.105 133.528L344.232 134.52ZM346.664 133.496L347.558 133.943L347.571 133.917L347.583 133.89L346.664 133.496ZM346.664 57.592L345.744 57.9859L345.756 58.0129L345.769 58.0392L346.664 57.592ZM344.232 56.44L344.105 57.432L344.107 57.4323L344.232 56.44ZM362.408 56.44V55.44H361.408V56.44H362.408ZM362.408 92.28H361.408V93.28H362.408V92.28ZM380.84 88.568L381.636 89.1724L381.641 89.1659L381.646 89.1594L380.84 88.568ZM380.84 60.28L380.033 60.8714L380.033 60.8714L380.84 60.28ZM362.408 96.76V95.76H361.408V96.76H362.408ZM362.408 134.52H361.408V135.52H362.408V134.52ZM384.424 130.68L383.633 130.068L383.63 130.072L384.424 130.68ZM337.192 55.544H338.192V51.96H337.192H336.192V55.544H337.192ZM337.192 51.96V52.96H372.52V51.96V50.96H337.192V51.96ZM372.52 51.96V52.96C379.271 52.96 384.526 53.891 388.352 55.6817L388.776 54.776L389.199 53.8703C385.004 51.9064 379.421 50.96 372.52 50.96V51.96ZM388.776 54.776L388.352 55.6817C392.222 57.4932 394.897 59.8405 396.477 62.6856L397.352 62.2L398.226 61.7144C396.393 58.4155 393.351 55.8134 389.199 53.8703L388.776 54.776ZM397.352 62.2L396.488 62.7039C398.185 65.6143 399.04 68.8521 399.04 72.44H400.04H401.04C401.04 68.5185 400.102 64.9297 398.215 61.6961L397.352 62.2ZM400.04 72.44H399.04V75.896H400.04H401.04V72.44H400.04ZM400.04 75.896H399.04C399.04 80.1011 397.713 83.7061 395.06 86.7603L395.816 87.416L396.571 88.0717C399.55 84.6406 401.04 80.5655 401.04 75.896H400.04ZM395.816 87.416L395.059 86.7618C392.497 89.7243 388.688 91.9016 383.534 93.2317L383.784 94.2L384.033 95.1683C389.461 93.7677 393.673 91.4224 396.572 88.0701L395.816 87.416ZM383.784 94.2L383.615 95.1857C389.963 96.2716 394.693 98.5073 397.916 101.81L398.632 101.112L399.347 100.414C395.743 96.7193 390.575 94.3471 383.952 93.2143L383.784 94.2ZM398.632 101.112L397.924 101.819C401.222 105.116 402.88 109.25 402.88 114.296H403.88H404.88C404.88 108.76 403.039 104.105 399.339 100.405L398.632 101.112ZM403.88 114.296H402.88V117.88H403.88H404.88V114.296H403.88ZM403.88 117.88H402.88C402.88 121.557 402.023 124.931 400.316 128.02L401.192 128.504L402.067 128.988C403.944 125.591 404.88 121.883 404.88 117.88H403.88ZM401.192 128.504L400.322 128.01C398.657 130.944 395.852 133.38 391.807 135.279L392.232 136.184L392.656 137.089C396.974 135.063 400.142 132.378 402.061 128.998L401.192 128.504ZM392.232 136.184L391.815 135.275C387.901 137.069 382.557 138 375.72 138V139V140C382.706 140 388.37 139.054 392.648 137.093L392.232 136.184ZM375.72 139V138H337.192V139V140H375.72V139ZM337.192 139H338.192V135.416H337.192H336.192V139H337.192ZM337.192 135.416L337.318 136.408L344.358 135.512L344.232 134.52L344.105 133.528L337.065 134.424L337.192 135.416ZM344.232 134.52L344.356 135.512C345.084 135.421 345.728 135.278 346.252 135.058C346.764 134.842 347.279 134.501 347.558 133.943L346.664 133.496L345.769 133.049C345.792 133.003 345.774 133.089 345.475 133.214C345.188 133.335 344.744 133.448 344.107 133.528L344.232 134.52ZM346.664 133.496L347.583 133.89C347.786 133.416 347.886 132.667 347.949 131.809C348.015 130.9 348.048 129.71 348.048 128.248H347.048H346.048C346.048 129.688 346.016 130.823 345.954 131.663C345.889 132.554 345.797 132.979 345.744 133.102L346.664 133.496ZM347.048 128.248H348.048V62.712H347.048H346.048V128.248H347.048ZM347.048 62.712H348.048C348.048 61.2509 348.015 60.0706 347.949 59.1812C347.915 58.7371 347.872 58.3503 347.817 58.0295C347.765 57.7299 347.69 57.4084 347.558 57.1448L346.664 57.592L345.769 58.0392C345.765 58.0316 345.802 58.1154 345.846 58.3705C345.887 58.6044 345.924 58.9216 345.954 59.3308C346.016 60.148 346.048 61.2717 346.048 62.712H347.048ZM346.664 57.592L347.583 57.1981C347.327 56.6025 346.833 56.2089 346.292 55.9523C345.753 55.6973 345.094 55.54 344.356 55.4477L344.232 56.44L344.107 57.4323C344.735 57.5107 345.163 57.6307 345.435 57.7597C345.704 57.8871 345.744 57.9841 345.744 57.9859L346.664 57.592ZM344.232 56.44L344.358 55.448L337.318 54.552L337.192 55.544L337.065 56.536L344.105 57.432L344.232 56.44ZM372.52 56.44V55.44H362.408V56.44V57.44H372.52V56.44ZM362.408 56.44H361.408V92.28H362.408H363.408V56.44H362.408ZM362.408 92.28V93.28H372.52V92.28V91.28H362.408V92.28ZM372.52 92.28V93.28C376.438 93.28 379.534 91.9432 381.636 89.1724L380.84 88.568L380.043 87.9636C378.39 90.1422 375.94 91.28 372.52 91.28V92.28ZM380.84 88.568L381.646 89.1594C383.711 86.343 384.656 82.0728 384.656 76.536H383.656H382.656C382.656 81.9218 381.722 85.6729 380.033 87.9766L380.84 88.568ZM383.656 76.536H384.656V72.44H383.656H382.656V76.536H383.656ZM383.656 72.44H384.656C384.656 66.822 383.713 62.5069 381.646 59.6886L380.84 60.28L380.033 60.8714C381.721 63.1731 382.656 66.9647 382.656 72.44H383.656ZM380.84 60.28L381.646 59.6886C379.549 56.8292 376.451 55.44 372.52 55.44V56.44V57.44C375.927 57.44 378.375 58.6108 380.033 60.8714L380.84 60.28ZM375.72 96.76V95.76H362.408V96.76V97.76H375.72V96.76ZM362.408 96.76H361.408V134.52H362.408H363.408V96.76H362.408ZM362.408 134.52V135.52H375.72V134.52V133.52H362.408V134.52ZM375.72 134.52V135.52C379.804 135.52 383.028 134.144 385.217 131.288L384.424 130.68L383.63 130.072C381.894 132.336 379.315 133.52 375.72 133.52V134.52ZM384.424 130.68L385.214 131.292C387.468 128.382 388.496 123.839 388.496 117.88H387.496H386.496C386.496 123.697 385.475 127.688 383.633 130.068L384.424 130.68ZM387.496 117.88H388.496V113.656H387.496H386.496V117.88H387.496ZM387.496 113.656H388.496C388.496 107.939 387.505 103.473 385.372 100.412C383.193 97.2862 379.918 95.76 375.72 95.76V96.76V97.76C379.372 97.76 381.984 99.0498 383.731 101.556C385.523 104.127 386.496 108.109 386.496 113.656H387.496Z" fill="black" mask="url(#path-1-outside-1_0_1)"/>
</g>
<defs>
<filter id="filter0_d_0_1" x="88.9415" y="50.96" width="319.938" height="97.04" filterUnits="userSpaceOnUse" color-interpolation-filters="sRGB">
<feFlood flood-opacity="0" result="BackgroundImageFix"/>
<feColorMatrix in="SourceAlpha" type="matrix" values="0 0 0 0 0 0 0 0 0 0 0 0 0 0 0 0 0 0 127 0" result="hardAlpha"/>
<feOffset dy="4"/>
<feGaussianBlur stdDeviation="2"/>
<feComposite in2="hardAlpha" operator="out"/>
<feColorMatrix type="matrix" values="0 0 0 0 0 0 0 0 0 0 0 0 0 0 0 0 0 0 0.25 0"/>
<feBlend mode="normal" in2="BackgroundImageFix" result="effect1_dropShadow_0_1"/>
<feBlend mode="normal" in="SourceGraphic" in2="effect1_dropShadow_0_1" result="shape"/>
</filter>
</defs>
</svg>
